<svg width="32" height="32" viewBox="0 0 32 32" fill="none" xmlns="http://www.w3.org/2000/svg">
<path d="M24 17.3571H8C7.68571 17.3571 7.42857 17.6143 7.42857 17.9286V24.2143C7.42857 24.5286 7.68571 24.7857 8 24.7857H24C24.3143 24.7857 24.5714 24.5286 24.5714 24.2143V17.9286C24.5714 17.6143 24.3143 17.3571 24 17.3571ZM22 22.2143H10V19.9286H22V22.2143ZM29.4286 26.8571C28.0071 26.8571 26.8571 28.0071 26.8571 29.4286C26.8571 30.85 28.0071 32 29.4286 32C30.85 32 32 30.85 32 29.4286C32 28.0071 30.85 26.8571 29.4286 26.8571ZM29.4286 30.2857C28.9536 30.2857 28.5714 29.9036 28.5714 29.4286C28.5714 28.9536 28.9536 28.5714 29.4286 28.5714C29.9036 28.5714 30.2857 28.9536 30.2857 29.4286C30.2857 29.9036 29.9036 30.2857 29.4286 30.2857ZM24 7.21429H8C7.68571 7.21429 7.42857 7.47143 7.42857 7.78571V14.0714C7.42857 14.3857 7.68571 14.6429 8 14.6429H24C24.3143 14.6429 24.5714 14.3857 24.5714 14.0714V7.78571C24.5714 7.47143 24.3143 7.21429 24 7.21429ZM22 12.0714H10V9.78572H22V12.0714ZM29.4286 5.14286C30.85 5.14286 32 3.99286 32 2.57143C32 1.15 30.85 0 29.4286 0C28.0071 0 26.8571 1.15 26.8571 2.57143C26.8571 3.99286 28.0071 5.14286 29.4286 5.14286ZM29.4286 1.71429C29.9036 1.71429 30.2857 2.09643 30.2857 2.57143C30.2857 3.04643 29.9036 3.42857 29.4286 3.42857C28.9536 3.42857 28.5714 3.04643 28.5714 2.57143C28.5714 2.09643 28.9536 1.71429 29.4286 1.71429ZM2.57143 0C1.15 0 0 1.15 0 2.57143C0 3.99286 1.15 5.14286 2.57143 5.14286C3.99286 5.14286 5.14286 3.99286 5.14286 2.57143C5.14286 1.15 3.99286 0 2.57143 0ZM2.57143 3.42857C2.09643 3.42857 1.71429 3.04643 1.71429 2.57143C1.71429 2.09643 2.09643 1.71429 2.57143 1.71429C3.04643 1.71429 3.42857 2.09643 3.42857 2.57143C3.42857 3.04643 3.04643 3.42857 2.57143 3.42857ZM2.57143 26.8571C1.15 26.8571 0 28.0071 0 29.4286C0 30.85 1.15 32 2.57143 32C3.99286 32 5.14286 30.85 5.14286 29.4286C5.14286 28.0071 3.99286 26.8571 2.57143 26.8571ZM2.57143 30.2857C2.09643 30.2857 1.71429 29.9036 1.71429 29.4286C1.71429 28.9536 2.09643 28.5714 2.57143 28.5714C3.04643 28.5714 3.42857 28.9536 3.42857 29.4286C3.42857 29.9036 3.04643 30.2857 2.57143 30.2857Z" fill="#2F2F2F"/>
</svg>
